<svg width="244" height="150" viewBox="0 0 244 150" fill="none" xmlns="http://www.w3.org/2000/svg">
<path d="M217.85 16.6857C196.777 6.37097 144.647 15.6857 115.35 15.6857C86.0527 15.6857 56.8501 -9.81431 36.951 4.2119C17.0519 18.2381 7.65358 42.8916 2.51369 80.5397C-2.62621 118.188 4.85005 147.275 22.8501 148.686C63.3501 151.861 72.5211 132.123 121.35 134.186C170.179 136.249 214.402 145.063 230.85 132.686C247.298 120.308 242.864 91.4217 242.35 83.6857C241.836 75.9496 238.924 27.0004 217.85 16.6857Z" fill="#533087"/>
<path d="M211.85 20.6855C191.35 10.6854 144.85 20.6855 116.35 20.6855C87.8501 20.6855 56.35 -0.138804 42.3501 8.18554C23.85 19.1857 13.8501 45.6856 8.85007 82.1856C3.85007 118.686 10.7839 140.587 24.8501 141.686C56.85 144.186 76.8501 128.185 124.35 130.186C171.85 132.186 208.85 139.185 224.85 127.186C240.85 115.186 236.35 87.1857 235.85 79.6856C235.35 72.1854 232.35 30.6857 211.85 20.6855Z" fill="white"/>
<mask id="mask0" mask-type="alpha" maskUnits="userSpaceOnUse" x="18" y="31" width="91" height="87">
<path d="M49.85 38.1858C58.8501 28.6858 68.8501 29.1857 77.8501 38.1857C86.8501 47.1858 89.4951 51.9649 95.8028 62.6857C102.279 73.6928 105.35 81.1857 107.85 90.1857C110.35 99.1858 105.85 111.186 95.8028 114.186C83.7936 117.772 76.4383 117.186 63.8501 117.186C51.2618 117.186 40.85 116.859 31.8973 114.186C22.9445 111.512 16.35 101.686 19.3501 90.1857C22.3298 78.7636 25.4212 73.6928 31.8973 62.6857C38.205 51.9649 40.85 47.6858 49.85 38.1858Z" fill="#C4C4C4"/>
</mask>
<g mask="url(#mask0)">
<path d="M99.8637 100.091C102.613 103.678 104.406 107.261 102.02 110.98C100.4 113.505 102.344 112.376 102.344 112.376L112.548 104.071L95.8304 39.8792L62.96 26.5122C62.96 26.5122 58.6436 45.2633 56.75 62.4645C69.6484 73.7104 90.906 88.4034 99.8637 100.091Z" fill="url(#paint0_linear)"/>
<path d="M88.1224 57.5083C102.837 81.2069 111.739 100.582 102.29 110.559C107.798 101.024 82.0004 83.2837 75.3894 77.438C77.9004 73.5243 84.0723 63.8207 88.1224 57.5083Z" fill="url(#paint1_linear)"/>
<path d="M61.35 40.6855C62.8846 36.5423 64.9318 33.1857 69.35 33.1857C72.35 33.1857 70.35 32.1857 70.35 32.1857L57.85 28.1857L12.85 75.6855L19.35 109.686C19.35 109.686 37.35 103.186 52.85 95.6855C55.35 79.1855 56.35 54.1855 61.35 40.6855Z" fill="url(#paint2_linear)"/>
<path d="M31.85 72.73C43.85 48.1857 55.35 30.6857 68.85 33.1856C57.85 33.6857 56.85 64.1857 55.5 72.6857C50.85 72.6857 39.35 72.73 31.85 72.73Z" fill="url(#paint3_linear)"/>
<path d="M29.765 104.331C25.4012 105.317 21.4309 105.44 19.041 101.728C17.4183 99.2081 17.6472 101.437 17.6472 101.437L20.9969 114.136L85.8511 125.857C85.8511 125.857 102.85 119.583 102.85 110.686C102.85 109.186 107.85 102.686 81.1 82.0856C65.6747 89.0462 43.9839 101.118 29.765 104.331Z" fill="url(#paint4_linear)"/>
<path d="M73.0529 111.517C45.6279 114.914 24.4815 114.863 19.3114 102.148C25.6879 111.115 52.2426 95.2062 60.2226 91.6727C62.7378 95.5792 68.9961 105.216 73.0529 111.517Z" fill="url(#paint5_linear)"/>
</g>
<path d="M145.082 50.0837L143.528 51.6797V54.1857H141.708V44.3857H143.528V49.4117L148.372 44.3857H150.416L146.3 48.7677L150.668 54.1857H148.54L145.082 50.0837ZM157.839 51.9177H152.939L151.973 54.1857H150.097L154.507 44.3857H156.299L160.723 54.1857H158.819L157.839 51.9177ZM157.237 50.4897L155.389 46.2057L153.555 50.4897H157.237ZM170.678 44.3857V54.1857H169.18L163.776 47.5497V54.1857H161.97V44.3857H163.468L168.872 51.0217V44.3857H170.678ZM180.248 49.0897C180.789 49.267 181.218 49.5657 181.536 49.9857C181.853 50.3963 182.012 50.9097 182.012 51.5257C182.012 52.375 181.685 53.033 181.032 53.4997C180.378 53.957 179.426 54.1857 178.176 54.1857H173.304V44.3857H177.896C179.053 44.3857 179.944 44.6143 180.57 45.0717C181.195 45.5197 181.508 46.1403 181.508 46.9337C181.508 47.419 181.396 47.8483 181.172 48.2217C180.948 48.595 180.64 48.8843 180.248 49.0897ZM175.124 45.8137V48.5157H177.7C178.334 48.5157 178.82 48.4037 179.156 48.1797C179.501 47.9463 179.674 47.6103 179.674 47.1717C179.674 46.7237 179.501 46.3877 179.156 46.1637C178.82 45.9303 178.334 45.8137 177.7 45.8137H175.124ZM178.064 52.7577C179.473 52.7577 180.178 52.2863 180.178 51.3437C180.178 50.401 179.473 49.9297 178.064 49.9297H175.124V52.7577H178.064ZM190.31 51.9177H185.41L184.444 54.1857H182.568L186.978 44.3857H188.77L193.194 54.1857H191.29L190.31 51.9177ZM189.708 50.4897L187.86 46.2057L186.026 50.4897H189.708ZM203.148 44.3857V54.1857H201.65L196.246 47.5497V54.1857H194.44V44.3857H195.938L201.342 51.0217V44.3857H203.148ZM145.556 78.3857H149.84C150.886 78.3857 151.814 78.591 152.626 79.0017C153.438 79.403 154.068 79.977 154.516 80.7237C154.964 81.461 155.188 82.315 155.188 83.2857C155.188 84.2563 154.964 85.115 154.516 85.8617C154.068 86.599 153.438 87.173 152.626 87.5837C151.814 87.985 150.886 88.1857 149.84 88.1857H145.556V78.3857ZM149.756 86.6457C150.475 86.6457 151.105 86.5103 151.646 86.2397C152.197 85.9597 152.617 85.5677 152.906 85.0637C153.205 84.5503 153.354 83.9577 153.354 83.2857C153.354 82.6137 153.205 82.0257 152.906 81.5217C152.617 81.0083 152.197 80.6163 151.646 80.3457C151.105 80.0657 150.475 79.9257 149.756 79.9257H147.376V86.6457H149.756ZM164.473 86.6597V88.1857H157.123V78.3857H164.277V79.9117H158.943V82.4597H163.675V83.9577H158.943V86.6597H164.473ZM169.54 88.3257C168.784 88.3257 168.051 88.2183 167.342 88.0037C166.642 87.789 166.086 87.5043 165.676 87.1497L166.306 85.7357C166.707 86.053 167.197 86.3143 167.776 86.5197C168.364 86.7157 168.952 86.8137 169.54 86.8137C170.268 86.8137 170.809 86.697 171.164 86.4637C171.528 86.2303 171.71 85.9223 171.71 85.5397C171.71 85.2597 171.607 85.031 171.402 84.8537C171.206 84.667 170.954 84.5223 170.646 84.4197C170.338 84.317 169.918 84.2003 169.386 84.0697C168.639 83.8923 168.032 83.715 167.566 83.5377C167.108 83.3603 166.712 83.085 166.376 82.7117C166.049 82.329 165.886 81.8157 165.886 81.1717C165.886 80.6303 166.03 80.1403 166.32 79.7017C166.618 79.2537 167.062 78.899 167.65 78.6377C168.247 78.3763 168.975 78.2457 169.834 78.2457C170.431 78.2457 171.019 78.3203 171.598 78.4697C172.176 78.619 172.676 78.8337 173.096 79.1137L172.522 80.5277C172.092 80.2757 171.644 80.0843 171.178 79.9537C170.711 79.823 170.258 79.7577 169.82 79.7577C169.101 79.7577 168.564 79.879 168.21 80.1217C167.864 80.3643 167.692 80.6863 167.692 81.0877C167.692 81.3677 167.79 81.5963 167.986 81.7737C168.191 81.951 168.448 82.091 168.756 82.1937C169.064 82.2963 169.484 82.413 170.016 82.5437C170.744 82.7117 171.341 82.889 171.808 83.0757C172.274 83.253 172.671 83.5283 172.998 83.9017C173.334 84.275 173.502 84.779 173.502 85.4137C173.502 85.955 173.352 86.445 173.054 86.8837C172.764 87.3223 172.321 87.6723 171.724 87.9337C171.126 88.195 170.398 88.3257 169.54 88.3257ZM175.306 78.3857H177.126V88.1857H175.306V78.3857ZM186.469 83.1737H188.191V87.0797C187.687 87.481 187.099 87.789 186.427 88.0037C185.755 88.2183 185.064 88.3257 184.355 88.3257C183.356 88.3257 182.456 88.111 181.653 87.6817C180.85 87.243 180.22 86.641 179.763 85.8757C179.306 85.1103 179.077 84.247 179.077 83.2857C179.077 82.3243 179.306 81.461 179.763 80.6957C180.22 79.9303 180.85 79.333 181.653 78.9037C182.465 78.465 183.375 78.2457 184.383 78.2457C185.204 78.2457 185.951 78.381 186.623 78.6517C187.295 78.9223 187.86 79.319 188.317 79.8417L187.169 80.9617C186.422 80.215 185.522 79.8417 184.467 79.8417C183.776 79.8417 183.16 79.9863 182.619 80.2757C182.087 80.565 181.667 80.971 181.359 81.4937C181.06 82.0163 180.911 82.6137 180.911 83.2857C180.911 83.939 181.06 84.527 181.359 85.0497C181.667 85.5723 182.087 85.983 182.619 86.2817C183.16 86.5803 183.772 86.7297 184.453 86.7297C185.218 86.7297 185.89 86.5617 186.469 86.2257V83.1737ZM199.3 78.3857V88.1857H197.802L192.398 81.5497V88.1857H190.592V78.3857H192.09L197.494 85.0217V78.3857H199.3ZM149.414 107.902C148.864 107.052 148.439 106.068 148.14 104.948C147.851 103.828 147.706 102.628 147.706 101.35C147.706 100.071 147.851 98.8717 148.14 97.7517C148.439 96.6223 148.864 95.6377 149.414 94.7977H151.08C150.511 95.8057 150.091 96.8463 149.82 97.9197C149.559 98.9837 149.428 100.127 149.428 101.35C149.428 102.572 149.559 103.72 149.82 104.794C150.091 105.858 150.511 106.894 151.08 107.902H149.414ZM156.074 101.084L154.52 102.68V105.186H152.7V95.3857H154.52V100.412L159.364 95.3857H161.408L157.292 99.7677L161.66 105.186H159.532L156.074 101.084ZM171.901 105.186L171.887 98.6897L168.667 104.066H167.855L164.635 98.7737V105.186H162.899V95.3857H164.397L168.289 101.882L172.111 95.3857H173.609L173.623 105.186H171.901ZM180.302 95.3857C181.152 95.3857 181.889 95.5257 182.514 95.8057C183.149 96.0857 183.634 96.487 183.97 97.0097C184.306 97.5323 184.474 98.153 184.474 98.8717C184.474 99.581 184.306 100.202 183.97 100.734C183.634 101.256 183.149 101.658 182.514 101.938C181.889 102.218 181.152 102.358 180.302 102.358H178.09V105.186H176.27V95.3857H180.302ZM180.218 100.818C181.012 100.818 181.614 100.65 182.024 100.314C182.435 99.9777 182.64 99.497 182.64 98.8717C182.64 98.2463 182.435 97.7657 182.024 97.4297C181.614 97.0937 181.012 96.9257 180.218 96.9257H178.09V100.818H180.218ZM190.298 95.3857H192.118V105.186H190.298V95.3857ZM193.76 107.902C194.33 106.894 194.75 105.853 195.02 104.78C195.291 103.706 195.426 102.563 195.426 101.35C195.426 100.136 195.291 98.993 195.02 97.9197C194.75 96.8463 194.33 95.8057 193.76 94.7977H195.426C195.977 95.6283 196.397 96.6083 196.686 97.7377C196.985 98.8577 197.134 100.062 197.134 101.35C197.134 102.638 196.985 103.842 196.686 104.962C196.397 106.072 195.977 107.052 195.426 107.902H193.76Z" fill="black"/>
<path d="M143.632 71.3257C142.876 71.3257 142.143 71.2183 141.434 71.0037C140.734 70.789 140.178 70.5043 139.768 70.1497L140.398 68.7357C140.799 69.053 141.289 69.3143 141.868 69.5197C142.456 69.7157 143.044 69.8137 143.632 69.8137C144.36 69.8137 144.901 69.697 145.256 69.4637C145.62 69.2303 145.802 68.9223 145.802 68.5397C145.802 68.2597 145.699 68.031 145.494 67.8537C145.298 67.667 145.046 67.5223 144.738 67.4197C144.43 67.317 144.01 67.2003 143.478 67.0697C142.731 66.8923 142.124 66.715 141.658 66.5377C141.2 66.3603 140.804 66.085 140.468 65.7117C140.141 65.329 139.978 64.8157 139.978 64.1717C139.978 63.6303 140.122 63.1403 140.412 62.7017C140.71 62.2537 141.154 61.899 141.742 61.6377C142.339 61.3763 143.067 61.2457 143.926 61.2457C144.523 61.2457 145.111 61.3203 145.69 61.4697C146.268 61.619 146.768 61.8337 147.188 62.1137L146.614 63.5277C146.184 63.2757 145.736 63.0843 145.27 62.9537C144.803 62.823 144.35 62.7577 143.912 62.7577C143.193 62.7577 142.656 62.879 142.302 63.1217C141.956 63.3643 141.784 63.6863 141.784 64.0877C141.784 64.3677 141.882 64.5963 142.078 64.7737C142.283 64.951 142.54 65.091 142.848 65.1937C143.156 65.2963 143.576 65.413 144.108 65.5437C144.836 65.7117 145.433 65.889 145.9 66.0757C146.366 66.253 146.763 66.5283 147.09 66.9017C147.426 67.275 147.594 67.779 147.594 68.4137C147.594 68.955 147.444 69.445 147.146 69.8837C146.856 70.3223 146.413 70.6723 145.816 70.9337C145.218 71.195 144.49 71.3257 143.632 71.3257ZM153.421 67.7277V71.1857H151.601V67.7557L147.751 61.3857H149.697L152.567 66.1597L155.465 61.3857H157.257L153.421 67.7277ZM161.282 71.3257C160.526 71.3257 159.793 71.2183 159.084 71.0037C158.384 70.789 157.829 70.5043 157.418 70.1497L158.048 68.7357C158.449 69.053 158.939 69.3143 159.518 69.5197C160.106 69.7157 160.694 69.8137 161.282 69.8137C162.01 69.8137 162.551 69.697 162.906 69.4637C163.27 69.2303 163.452 68.9223 163.452 68.5397C163.452 68.2597 163.349 68.031 163.144 67.8537C162.948 67.667 162.696 67.5223 162.388 67.4197C162.08 67.317 161.66 67.2003 161.128 67.0697C160.381 66.8923 159.775 66.715 159.308 66.5377C158.851 66.3603 158.454 66.085 158.118 65.7117C157.791 65.329 157.628 64.8157 157.628 64.1717C157.628 63.6303 157.773 63.1403 158.062 62.7017C158.361 62.2537 158.804 61.899 159.392 61.6377C159.989 61.3763 160.717 61.2457 161.576 61.2457C162.173 61.2457 162.761 61.3203 163.34 61.4697C163.919 61.619 164.418 61.8337 164.838 62.1137L164.264 63.5277C163.835 63.2757 163.387 63.0843 162.92 62.9537C162.453 62.823 162.001 62.7577 161.562 62.7577C160.843 62.7577 160.307 62.879 159.952 63.1217C159.607 63.3643 159.434 63.6863 159.434 64.0877C159.434 64.3677 159.532 64.5963 159.728 64.7737C159.933 64.951 160.19 65.091 160.498 65.1937C160.806 65.2963 161.226 65.413 161.758 65.5437C162.486 65.7117 163.083 65.889 163.55 66.0757C164.017 66.253 164.413 66.5283 164.74 66.9017C165.076 67.275 165.244 67.779 165.244 68.4137C165.244 68.955 165.095 69.445 164.796 69.8837C164.507 70.3223 164.063 70.6723 163.466 70.9337C162.869 71.195 162.141 71.3257 161.282 71.3257ZM168.9 62.9257H165.652V61.3857H173.968V62.9257H170.72V71.1857H168.9V62.9257ZM182.684 69.6597V71.1857H175.334V61.3857H182.488V62.9117H177.154V65.4597H181.886V66.9577H177.154V69.6597H182.684ZM193.715 71.1857L193.701 64.6897L190.481 70.0657H189.669L186.449 64.7737V71.1857H184.713V61.3857H186.211L190.103 67.8817L193.925 61.3857H195.423L195.437 71.1857H193.715ZM201.122 71.3257C200.366 71.3257 199.633 71.2183 198.924 71.0037C198.224 70.789 197.668 70.5043 197.258 70.1497L197.888 68.7357C198.289 69.053 198.779 69.3143 199.358 69.5197C199.946 69.7157 200.534 69.8137 201.122 69.8137C201.85 69.8137 202.391 69.697 202.746 69.4637C203.11 69.2303 203.292 68.9223 203.292 68.5397C203.292 68.2597 203.189 68.031 202.984 67.8537C202.788 67.667 202.536 67.5223 202.228 67.4197C201.92 67.317 201.5 67.2003 200.968 67.0697C200.221 66.8923 199.614 66.715 199.148 66.5377C198.69 66.3603 198.294 66.085 197.958 65.7117C197.631 65.329 197.468 64.8157 197.468 64.1717C197.468 63.6303 197.612 63.1403 197.902 62.7017C198.2 62.2537 198.644 61.899 199.232 61.6377C199.829 61.3763 200.557 61.2457 201.416 61.2457C202.013 61.2457 202.601 61.3203 203.18 61.4697C203.758 61.619 204.258 61.8337 204.678 62.1137L204.104 63.5277C203.674 63.2757 203.226 63.0843 202.76 62.9537C202.293 62.823 201.84 62.7577 201.402 62.7577C200.683 62.7577 200.146 62.879 199.792 63.1217C199.446 63.3643 199.274 63.6863 199.274 64.0877C199.274 64.3677 199.372 64.5963 199.568 64.7737C199.773 64.951 200.03 65.091 200.338 65.1937C200.646 65.2963 201.066 65.413 201.598 65.5437C202.326 65.7117 202.923 65.889 203.39 66.0757C203.856 66.253 204.253 66.5283 204.58 66.9017C204.916 67.275 205.084 67.779 205.084 68.4137C205.084 68.955 204.934 69.445 204.636 69.8837C204.346 70.3223 203.903 70.6723 203.306 70.9337C202.708 71.195 201.98 71.3257 201.122 71.3257Z" fill="#654397"/>
<defs>
<linearGradient id="paint0_linear" x1="119.783" y1="95.644" x2="48.1097" y2="49.6578" gradientUnits="userSpaceOnUse">
<stop stop-color="#9382B5"/>
<stop offset="1" stop-color="#57318E"/>
</linearGradient>
<linearGradient id="paint1_linear" x1="112.944" y1="94.8201" x2="78.4022" y2="72.6581" gradientUnits="userSpaceOnUse">
<stop stop-color="white" stop-opacity="0.5"/>
<stop offset="1" stop-color="white" stop-opacity="0"/>
</linearGradient>
<linearGradient id="paint2_linear" x1="46.85" y1="26.6857" x2="46.85" y2="109.686" gradientUnits="userSpaceOnUse">
<stop stop-color="#9382B5"/>
<stop offset="1" stop-color="#57318E"/>
</linearGradient>
<linearGradient id="paint3_linear" x1="49.85" y1="32.73" x2="49.85" y2="72.73" gradientUnits="userSpaceOnUse">
<stop stop-color="white" stop-opacity="0.5"/>
<stop offset="1" stop-color="white" stop-opacity="0"/>
</linearGradient>
<linearGradient id="paint4_linear" x1="25.6676" y1="124.201" x2="96.4592" y2="78.6217" gradientUnits="userSpaceOnUse">
<stop stop-color="#9382B5"/>
<stop offset="1" stop-color="#57318E"/>
</linearGradient>
<linearGradient id="paint5_linear" x1="29.2001" y1="118.361" x2="63.3165" y2="96.395" gradientUnits="userSpaceOnUse">
<stop stop-color="white" stop-opacity="0.5"/>
<stop offset="1" stop-color="white" stop-opacity="0"/>
</linearGradient>
</defs>
</svg>
