<svg width="243" height="150" viewBox="0 0 243 150" fill="none" xmlns="http://www.w3.org/2000/svg">
<path d="M216.925 16.6857C195.852 6.37097 143.722 15.6857 114.425 15.6857C85.1277 15.6857 55.925 -9.81431 36.0259 4.2119C16.1269 18.2381 6.72856 42.8916 1.58867 80.5397C-3.55123 118.188 3.92503 147.275 21.925 148.686C62.425 151.861 71.5961 132.123 120.425 134.186C169.254 136.249 213.477 145.063 229.925 132.686C246.373 120.308 241.939 91.4217 241.425 83.6857C240.911 75.9496 237.998 27.0004 216.925 16.6857Z" fill="#F77344"/>
<path d="M210.925 20.6855C190.425 10.6854 143.925 20.6855 115.425 20.6855C86.9251 20.6855 55.425 -0.138804 41.425 8.18554C22.925 19.1857 12.9251 45.6856 7.92506 82.1856C2.92506 118.686 9.85892 140.587 23.9251 141.686C55.925 144.186 75.9251 128.185 123.425 130.186C170.925 132.186 207.925 139.185 223.925 127.186C239.925 115.186 235.425 87.1857 234.925 79.6856C234.425 72.1854 231.425 30.6857 210.925 20.6855Z" fill="white"/>
<mask id="mask0" mask-type="alpha" maskUnits="userSpaceOnUse" x="17" y="31" width="91" height="87">
<path d="M48.925 38.1858C57.925 28.6858 67.9251 29.1857 76.925 38.1857C85.925 47.1858 88.5701 51.9649 94.8778 62.6857C101.354 73.6928 104.425 81.1857 106.925 90.1857C109.425 99.1858 104.925 111.186 94.8778 114.186C82.8686 117.772 75.5133 117.186 62.925 117.186C50.3368 117.186 39.925 116.859 30.9723 114.186C22.0195 111.512 15.425 101.686 18.425 90.1857C21.4048 78.7636 24.4961 73.6928 30.9723 62.6857C37.2799 51.9649 39.925 47.6858 48.925 38.1858Z" fill="#C4C4C4"/>
</mask>
<g mask="url(#mask0)">
<path d="M98.9386 100.091C101.688 103.678 103.481 107.261 101.095 110.98C99.4749 113.505 101.418 112.376 101.418 112.376L111.623 104.071L94.9054 39.8792L62.035 26.5122C62.035 26.5122 57.7186 45.2633 55.825 62.4645C68.7234 73.7104 89.9809 88.4034 98.9386 100.091Z" fill="url(#paint0_linear)"/>
<path d="M87.1974 57.5083C101.912 81.2069 110.814 100.582 101.365 110.559C106.873 101.024 81.0754 83.2837 74.4644 77.438C76.9754 73.5243 83.1473 63.8207 87.1974 57.5083Z" fill="url(#paint1_linear)"/>
<path d="M60.425 40.6855C61.9595 36.5423 64.0067 33.1857 68.425 33.1857C71.425 33.1857 69.425 32.1857 69.425 32.1857L56.925 28.1857L11.925 75.6855L18.425 109.686C18.425 109.686 36.425 103.186 51.925 95.6855C54.425 79.1855 55.425 54.1855 60.425 40.6855Z" fill="url(#paint2_linear)"/>
<path d="M30.925 72.73C42.925 48.1857 54.425 30.6857 67.925 33.1856C56.925 33.6857 55.925 64.1857 54.575 72.6857C49.925 72.6857 38.425 72.73 30.925 72.73Z" fill="url(#paint3_linear)"/>
<path d="M28.84 104.331C24.4761 105.317 20.5059 105.44 18.116 101.728C16.4933 99.2081 16.7222 101.437 16.7222 101.437L20.0719 114.136L84.926 125.857C84.926 125.857 101.925 119.583 101.925 110.686C101.925 109.186 106.925 102.686 80.175 82.0856C64.7497 89.0462 43.0589 101.118 28.84 104.331Z" fill="url(#paint4_linear)"/>
<path d="M72.1279 111.517C44.7028 114.914 23.5564 114.863 18.3864 102.148C24.7629 111.115 51.3176 95.2062 59.2976 91.6727C61.8128 95.5792 68.0711 105.216 72.1279 111.517Z" fill="url(#paint5_linear)"/>
</g>
<path d="M143.657 50.0837L142.103 51.6797V54.1857H140.283V44.3857H142.103V49.4117L146.947 44.3857H148.991L144.875 48.7677L149.243 54.1857H147.115L143.657 50.0837ZM156.414 51.9177H151.514L150.548 54.1857H148.672L153.082 44.3857H154.874L159.298 54.1857H157.394L156.414 51.9177ZM155.812 50.4897L153.964 46.2057L152.13 50.4897H155.812ZM169.253 44.3857V54.1857H167.755L162.351 47.5497V54.1857H160.545V44.3857H162.043L167.447 51.0217V44.3857H169.253ZM178.823 49.0897C179.364 49.267 179.793 49.5657 180.111 49.9857C180.428 50.3963 180.587 50.9097 180.587 51.5257C180.587 52.375 180.26 53.033 179.607 53.4997C178.953 53.957 178.001 54.1857 176.751 54.1857H171.879V44.3857H176.471C177.628 44.3857 178.519 44.6143 179.145 45.0717C179.77 45.5197 180.083 46.1403 180.083 46.9337C180.083 47.419 179.971 47.8483 179.747 48.2217C179.523 48.595 179.215 48.8843 178.823 49.0897ZM173.699 45.8137V48.5157H176.275C176.909 48.5157 177.395 48.4037 177.731 48.1797C178.076 47.9463 178.249 47.6103 178.249 47.1717C178.249 46.7237 178.076 46.3877 177.731 46.1637C177.395 45.9303 176.909 45.8137 176.275 45.8137H173.699ZM176.639 52.7577C178.048 52.7577 178.753 52.2863 178.753 51.3437C178.753 50.401 178.048 49.9297 176.639 49.9297H173.699V52.7577H176.639ZM188.885 51.9177H183.985L183.019 54.1857H181.143L185.553 44.3857H187.345L191.769 54.1857H189.865L188.885 51.9177ZM188.283 50.4897L186.435 46.2057L184.601 50.4897H188.283ZM201.723 44.3857V54.1857H200.225L194.821 47.5497V54.1857H193.015V44.3857H194.513L199.917 51.0217V44.3857H201.723ZM146.609 71.3257C145.853 71.3257 145.12 71.2183 144.411 71.0037C143.711 70.789 143.156 70.5043 142.745 70.1497L143.375 68.7357C143.776 69.053 144.266 69.3143 144.845 69.5197C145.433 69.7157 146.021 69.8137 146.609 69.8137C147.337 69.8137 147.878 69.697 148.233 69.4637C148.597 69.2303 148.779 68.9223 148.779 68.5397C148.779 68.2597 148.676 68.031 148.471 67.8537C148.275 67.667 148.023 67.5223 147.715 67.4197C147.407 67.317 146.987 67.2003 146.455 67.0697C145.708 66.8923 145.102 66.715 144.635 66.5377C144.178 66.3603 143.781 66.085 143.445 65.7117C143.118 65.329 142.955 64.8157 142.955 64.1717C142.955 63.6303 143.1 63.1403 143.389 62.7017C143.688 62.2537 144.131 61.899 144.719 61.6377C145.316 61.3763 146.044 61.2457 146.903 61.2457C147.5 61.2457 148.088 61.3203 148.667 61.4697C149.246 61.619 149.745 61.8337 150.165 62.1137L149.591 63.5277C149.162 63.2757 148.714 63.0843 148.247 62.9537C147.78 62.823 147.328 62.7577 146.889 62.7577C146.17 62.7577 145.634 62.879 145.279 63.1217C144.934 63.3643 144.761 63.6863 144.761 64.0877C144.761 64.3677 144.859 64.5963 145.055 64.7737C145.26 64.951 145.517 65.091 145.825 65.1937C146.133 65.2963 146.553 65.413 147.085 65.5437C147.813 65.7117 148.41 65.889 148.877 66.0757C149.344 66.253 149.74 66.5283 150.067 66.9017C150.403 67.275 150.571 67.779 150.571 68.4137C150.571 68.955 150.422 69.445 150.123 69.8837C149.834 70.3223 149.39 70.6723 148.793 70.9337C148.196 71.195 147.468 71.3257 146.609 71.3257ZM156.398 67.7277V71.1857H154.578V67.7557L150.728 61.3857H152.674L155.544 66.1597L158.442 61.3857H160.234L156.398 67.7277ZM164.259 71.3257C163.503 71.3257 162.771 71.2183 162.061 71.0037C161.361 70.789 160.806 70.5043 160.395 70.1497L161.025 68.7357C161.427 69.053 161.917 69.3143 162.495 69.5197C163.083 69.7157 163.671 69.8137 164.259 69.8137C164.987 69.8137 165.529 69.697 165.883 69.4637C166.247 69.2303 166.429 68.9223 166.429 68.5397C166.429 68.2597 166.327 68.031 166.121 67.8537C165.925 67.667 165.673 67.5223 165.365 67.4197C165.057 67.317 164.637 67.2003 164.105 67.0697C163.359 66.8923 162.752 66.715 162.285 66.5377C161.828 66.3603 161.431 66.085 161.095 65.7117C160.769 65.329 160.605 64.8157 160.605 64.1717C160.605 63.6303 160.75 63.1403 161.039 62.7017C161.338 62.2537 161.781 61.899 162.369 61.6377C162.967 61.3763 163.695 61.2457 164.553 61.2457C165.151 61.2457 165.739 61.3203 166.317 61.4697C166.896 61.619 167.395 61.8337 167.815 62.1137L167.241 63.5277C166.812 63.2757 166.364 63.0843 165.897 62.9537C165.431 62.823 164.978 62.7577 164.539 62.7577C163.821 62.7577 163.284 62.879 162.929 63.1217C162.584 63.3643 162.411 63.6863 162.411 64.0877C162.411 64.3677 162.509 64.5963 162.705 64.7737C162.911 64.951 163.167 65.091 163.475 65.1937C163.783 65.2963 164.203 65.413 164.735 65.5437C165.463 65.7117 166.061 65.889 166.527 66.0757C166.994 66.253 167.391 66.5283 167.717 66.9017C168.053 67.275 168.221 67.779 168.221 68.4137C168.221 68.955 168.072 69.445 167.773 69.8837C167.484 70.3223 167.041 70.6723 166.443 70.9337C165.846 71.195 165.118 71.3257 164.259 71.3257ZM171.877 62.9257H168.629V61.3857H176.945V62.9257H173.697V71.1857H171.877V62.9257ZM185.661 69.6597V71.1857H178.311V61.3857H185.465V62.9117H180.131V65.4597H184.863V66.9577H180.131V69.6597H185.661ZM196.692 71.1857L196.678 64.6897L193.458 70.0657H192.646L189.426 64.7737V71.1857H187.69V61.3857H189.188L193.08 67.8817L196.902 61.3857H198.4L198.414 71.1857H196.692ZM145.754 107.902C145.203 107.052 144.779 106.068 144.48 104.948C144.191 103.828 144.046 102.628 144.046 101.35C144.046 100.071 144.191 98.8717 144.48 97.7517C144.779 96.6223 145.203 95.6377 145.754 94.7977H147.42C146.851 95.8057 146.431 96.8463 146.16 97.9197C145.899 98.9837 145.768 100.127 145.768 101.35C145.768 102.572 145.899 103.72 146.16 104.794C146.431 105.858 146.851 106.894 147.42 107.902H145.754ZM152.414 101.084L150.86 102.68V105.186H149.04V95.3857H150.86V100.412L155.704 95.3857H157.748L153.632 99.7677L158 105.186H155.872L152.414 101.084ZM168.241 105.186L168.227 98.6897L165.007 104.066H164.195L160.975 98.7737V105.186H159.239V95.3857H160.737L164.629 101.882L168.451 95.3857H169.949L169.963 105.186H168.241ZM176.642 95.3857C177.491 95.3857 178.229 95.5257 178.854 95.8057C179.489 96.0857 179.974 96.487 180.31 97.0097C180.646 97.5323 180.814 98.153 180.814 98.8717C180.814 99.581 180.646 100.202 180.31 100.734C179.974 101.256 179.489 101.658 178.854 101.938C178.229 102.218 177.491 102.358 176.642 102.358H174.43V105.186H172.61V95.3857H176.642ZM176.558 100.818C177.351 100.818 177.953 100.65 178.364 100.314C178.775 99.9777 178.98 99.497 178.98 98.8717C178.98 98.2463 178.775 97.7657 178.364 97.4297C177.953 97.0937 177.351 96.9257 176.558 96.9257H174.43V100.818H176.558ZM186.637 95.3857H188.457V105.186H186.637V95.3857ZM191.108 95.3857H192.928V105.186H191.108V95.3857ZM194.571 107.902C195.14 106.894 195.56 105.853 195.831 104.78C196.101 103.706 196.237 102.563 196.237 101.35C196.237 100.136 196.101 98.993 195.831 97.9197C195.56 96.8463 195.14 95.8057 194.571 94.7977H196.237C196.787 95.6283 197.207 96.6083 197.497 97.7377C197.795 98.8577 197.945 100.062 197.945 101.35C197.945 102.638 197.795 103.842 197.497 104.962C197.207 106.072 196.787 107.052 196.237 107.902H194.571Z" fill="black"/>
<path d="M116.589 78.3857H118.409V88.1857H116.589V78.3857ZM130.062 88.1857L130.048 81.6897L126.828 87.0657H126.016L122.796 81.7737V88.1857H121.06V78.3857H122.558L126.45 84.8817L130.272 78.3857H131.77L131.784 88.1857H130.062ZM138.463 78.3857C139.313 78.3857 140.05 78.5257 140.675 78.8057C141.31 79.0857 141.795 79.487 142.131 80.0097C142.467 80.5323 142.635 81.153 142.635 81.8717C142.635 82.581 142.467 83.2017 142.131 83.7337C141.795 84.2563 141.31 84.6577 140.675 84.9377C140.05 85.2177 139.313 85.3577 138.463 85.3577H136.251V88.1857H134.431V78.3857H138.463ZM138.379 83.8177C139.173 83.8177 139.775 83.6497 140.185 83.3137C140.596 82.9777 140.801 82.497 140.801 81.8717C140.801 81.2463 140.596 80.7657 140.185 80.4297C139.775 80.0937 139.173 79.9257 138.379 79.9257H136.251V83.8177H138.379ZM150.865 88.1857L148.863 85.3157C148.779 85.325 148.653 85.3297 148.485 85.3297H146.273V88.1857H144.453V78.3857H148.485C149.334 78.3857 150.071 78.5257 150.697 78.8057C151.331 79.0857 151.817 79.487 152.153 80.0097C152.489 80.5323 152.657 81.153 152.657 81.8717C152.657 82.609 152.475 83.2437 152.111 83.7757C151.756 84.3077 151.243 84.7043 150.571 84.9657L152.825 88.1857H150.865ZM150.823 81.8717C150.823 81.2463 150.617 80.7657 150.207 80.4297C149.796 80.0937 149.194 79.9257 148.401 79.9257H146.273V83.8317H148.401C149.194 83.8317 149.796 83.6637 150.207 83.3277C150.617 82.9823 150.823 82.497 150.823 81.8717ZM159.271 88.3257C158.272 88.3257 157.372 88.111 156.569 87.6817C155.766 87.243 155.136 86.641 154.679 85.8757C154.222 85.101 153.993 84.2377 153.993 83.2857C153.993 82.3337 154.222 81.475 154.679 80.7097C155.136 79.935 155.766 79.333 156.569 78.9037C157.372 78.465 158.272 78.2457 159.271 78.2457C160.27 78.2457 161.17 78.465 161.973 78.9037C162.776 79.333 163.406 79.9303 163.863 80.6957C164.32 81.461 164.549 82.3243 164.549 83.2857C164.549 84.247 164.32 85.1103 163.863 85.8757C163.406 86.641 162.776 87.243 161.973 87.6817C161.17 88.111 160.27 88.3257 159.271 88.3257ZM159.271 86.7297C159.924 86.7297 160.512 86.585 161.035 86.2957C161.558 85.997 161.968 85.5863 162.267 85.0637C162.566 84.5317 162.715 83.939 162.715 83.2857C162.715 82.6323 162.566 82.0443 162.267 81.5217C161.968 80.9897 161.558 80.579 161.035 80.2897C160.512 79.991 159.924 79.8417 159.271 79.8417C158.618 79.8417 158.03 79.991 157.507 80.2897C156.984 80.579 156.574 80.9897 156.275 81.5217C155.976 82.0443 155.827 82.6323 155.827 83.2857C155.827 83.939 155.976 84.5317 156.275 85.0637C156.574 85.5863 156.984 85.997 157.507 86.2957C158.03 86.585 158.618 86.7297 159.271 86.7297ZM175.124 78.3857L170.854 88.1857H169.062L164.778 78.3857H166.752L170.014 85.9457L173.304 78.3857H175.124ZM183.508 86.6597V88.1857H176.158V78.3857H183.312V79.9117H177.978V82.4597H182.71V83.9577H177.978V86.6597H183.508ZM194.539 88.1857L194.525 81.6897L191.305 87.0657H190.493L187.273 81.7737V88.1857H185.537V78.3857H187.035L190.927 84.8817L194.749 78.3857H196.247L196.261 88.1857H194.539ZM206.258 86.6597V88.1857H198.908V78.3857H206.062V79.9117H200.728V82.4597H205.46V83.9577H200.728V86.6597H206.258ZM216.995 78.3857V88.1857H215.497L210.093 81.5497V88.1857H208.287V78.3857H209.785L215.189 85.0217V78.3857H216.995ZM221.609 79.9257H218.361V78.3857H226.677V79.9257H223.429V88.1857H221.609V79.9257Z" fill="#F67344"/>
<defs>
<linearGradient id="paint0_linear" x1="118.858" y1="95.644" x2="47.1847" y2="49.6578" gradientUnits="userSpaceOnUse">
<stop stop-color="#9382B5"/>
<stop offset="1" stop-color="#57318E"/>
</linearGradient>
<linearGradient id="paint1_linear" x1="112.019" y1="94.8201" x2="77.4772" y2="72.6581" gradientUnits="userSpaceOnUse">
<stop stop-color="white" stop-opacity="0.5"/>
<stop offset="1" stop-color="white" stop-opacity="0"/>
</linearGradient>
<linearGradient id="paint2_linear" x1="45.925" y1="26.6857" x2="45.925" y2="109.686" gradientUnits="userSpaceOnUse">
<stop stop-color="#9382B5"/>
<stop offset="1" stop-color="#57318E"/>
</linearGradient>
<linearGradient id="paint3_linear" x1="48.925" y1="32.73" x2="48.925" y2="72.73" gradientUnits="userSpaceOnUse">
<stop stop-color="white" stop-opacity="0.5"/>
<stop offset="1" stop-color="white" stop-opacity="0"/>
</linearGradient>
<linearGradient id="paint4_linear" x1="24.7425" y1="124.201" x2="95.5341" y2="78.6217" gradientUnits="userSpaceOnUse">
<stop stop-color="#9382B5"/>
<stop offset="1" stop-color="#57318E"/>
</linearGradient>
<linearGradient id="paint5_linear" x1="28.275" y1="118.361" x2="62.3915" y2="96.395" gradientUnits="userSpaceOnUse">
<stop stop-color="white" stop-opacity="0.5"/>
<stop offset="1" stop-color="white" stop-opacity="0"/>
</linearGradient>
</defs>
</svg>
